<?xml version="1.0" standalone="no"?>
<!DOCTYPE svg PUBLIC "-//W3C//DTD SVG 20010904//EN"
 "http://www.w3.org/TR/2001/REC-SVG-20010904/DTD/svg10.dtd">
<svg version="1.0" xmlns="http://www.w3.org/2000/svg"
 width="375.000000pt" height="375.000000pt" viewBox="0 0 375.000000 375.000000"
 preserveAspectRatio="xMidYMid meet">
<metadata>
Created by potrace 1.11, written by Peter Selinger 2001-2013
</metadata>
<g transform="translate(0.000000,375.000000) scale(0.100000,-0.100000)"
fill="#000000" stroke="none">
<path d="M0 1875 l0 -1875 1875 0 1875 0 0 1875 0 1875 -1875 0 -1875 0 0
-1875z m1139 1756 c262 -88 451 -290 522 -557 29 -110 29 -278 0 -389 -42
-161 -139 -314 -259 -410 -31 -25 -65 -53 -75 -61 -43 -35 13 -161 122 -276
58 -62 69 -78 50 -74 -13 3 -55 13 -94 21 -189 42 -328 99 -398 164 l-44 41
-84 0 c-442 0 -807 396 -775 840 25 354 276 647 622 724 48 11 107 15 194 12
109 -3 137 -7 219 -35z m1951 -691 c0 -162 -2 -190 -15 -190 -8 0 -15 7 -15
15 0 14 -3 14 -30 0 -46 -24 -87 -19 -121 14 -25 26 -29 37 -29 86 0 61 19
108 49 125 29 15 83 12 109 -6 l22 -15 0 80 c0 65 3 81 15 81 13 0 15 -28 15
-190z m-1209 150 c10 -6 19 -17 19 -25 0 -18 -2 -18 -51 -3 -54 16 -89 0 -89
-40 0 -34 17 -51 86 -85 67 -34 87 -77 62 -132 -22 -49 -111 -71 -173 -43 -29
13 -37 55 -7 43 79 -34 136 -26 148 21 10 38 -4 54 -71 91 -70 37 -85 55 -85
100 0 51 37 83 95 83 26 0 55 -5 66 -10z m409 -55 c0 -33 2 -35 35 -35 24 0
35 -5 35 -15 0 -10 -11 -15 -35 -15 l-35 0 0 -84 c0 -90 11 -113 50 -101 16 5
20 2 20 -15 0 -19 -5 -21 -42 -18 -56 4 -68 28 -68 136 0 75 -2 82 -20 82 -11
0 -20 7 -20 15 0 8 9 15 20 15 16 0 20 7 20 35 0 28 4 35 20 35 16 0 20 -7 20
-35z m-159 -54 c22 -18 24 -28 27 -125 4 -102 3 -106 -17 -106 -12 0 -21 5
-21 10 0 7 -6 7 -19 0 -30 -16 -86 -12 -110 8 -30 23 -31 76 -3 104 14 15 38
23 76 26 46 4 56 8 56 23 0 23 -27 49 -51 49 -11 0 -34 -7 -50 -16 -34 -17
-45 -14 -35 11 14 36 109 47 147 16z m329 -76 c0 -91 1 -95 26 -112 25 -16 28
-16 63 3 l36 19 3 93 c2 73 6 92 17 92 12 0 15 -22 15 -125 0 -104 -2 -125
-15 -125 -8 0 -15 7 -15 16 0 15 -2 15 -25 0 -25 -16 -71 -21 -100 -10 -31 12
-45 59 -45 154 0 83 1 90 20 90 19 0 20 -7 20 -95z m290 78 c0 -15 1 -15 18 0
10 10 33 17 50 17 25 0 32 -4 32 -20 0 -17 -5 -19 -24 -14 -19 4 -32 -1 -50
-20 -24 -23 -26 -32 -26 -111 0 -78 -2 -85 -20 -85 -19 0 -20 7 -20 125 0 118
1 125 20 125 12 0 20 -7 20 -17z m581 -2 c22 -18 24 -28 27 -125 4 -102 3
-106 -17 -106 -12 0 -21 5 -21 10 0 7 -6 7 -19 0 -30 -16 -86 -12 -110 8 -30
23 -31 76 -3 104 14 15 38 23 76 26 46 4 56 8 56 23 0 23 -27 49 -51 49 -11 0
-34 -7 -50 -16 -34 -17 -45 -14 -35 11 14 36 109 47 147 16z m138 -73 c19 -51
37 -96 40 -100 4 -4 23 36 42 90 24 64 41 98 52 100 9 2 17 -1 17 -6 0 -6 -28
-83 -61 -171 -49 -129 -65 -161 -80 -161 -23 0 -23 0 -4 48 16 38 15 41 -30
161 -25 67 -45 124 -45 126 0 3 8 5 18 5 13 0 26 -23 51 -92z m-1132 -347
c135 -69 172 -253 72 -357 l-32 -33 29 -6 c84 -19 115 -30 180 -60 55 -25 78
-42 101 -76 72 -105 143 -282 143 -357 0 -47 0 -47 -130 -174 -110 -109 -131
-134 -140 -170 -6 -26 -10 -286 -10 -644 0 -707 11 -647 -117 -642 -68 3 -78
6 -94 28 -14 20 -25 96 -54 360 -21 184 -39 337 -41 339 -2 2 -4 -13 -4 -35 0
-21 -9 -176 -19 -343 -24 -367 -17 -351 -146 -351 -136 0 -121 -63 -154 667
l-28 620 -85 129 c-117 179 -167 264 -174 301 -11 55 78 215 168 300 39 38
141 86 219 103 l56 13 -33 48 c-133 198 83 448 293 340z"/>
<path d="M791 3588 c-147 -21 -275 -84 -387 -190 -150 -143 -224 -312 -224
-519 0 -377 279 -678 665 -714 86 -9 229 14 317 50 194 79 347 245 416 453 23
68 26 93 26 212 -1 117 -4 145 -26 212 -90 273 -319 462 -599 498 -93 11 -98
11 -188 -2z m-271 -658 c32 -91 56 -168 53 -172 -2 -5 -19 -8 -37 -8 -30 0
-34 4 -45 40 l-12 41 -66 -3 c-66 -3 -66 -3 -78 -38 -10 -29 -17 -36 -45 -38
-31 -3 -33 -2 -27 25 3 15 29 95 58 176 l52 148 45 -3 45 -3 57 -165z m765 55
c0 -25 -4 -30 -21 -27 -14 2 -29 -7 -43 -24 -17 -22 -21 -40 -21 -106 l0 -79
-32 3 -33 3 0 125 0 125 28 3 c20 3 27 -1 27 -15 0 -15 3 -15 23 5 13 14 31
22 47 20 20 -2 25 -8 25 -33z m218 14 c29 -22 52 -88 42 -119 -6 -18 -16 -20
-86 -20 -87 0 -99 -10 -58 -51 21 -21 65 -23 112 -4 14 6 17 2 17 -19 0 -31
-30 -46 -91 -46 -82 0 -129 49 -129 135 0 58 24 111 59 130 39 21 104 19 134
-6z m-717 -4 c4 -9 -16 -53 -44 -103 l-51 -87 50 -3 c45 -3 49 -5 49 -28 0
-24 -1 -24 -90 -24 -89 0 -90 0 -90 25 0 13 20 58 45 98 25 41 45 77 45 81 0
3 -18 6 -39 6 -42 0 -57 11 -47 35 8 22 164 21 172 0z m114 -76 c0 -120 17
-150 66 -115 16 12 20 30 24 108 l5 93 33 3 32 3 0 -130 0 -131 -25 0 c-14 0
-28 7 -31 15 -5 13 -10 12 -31 -5 -36 -28 -84 -26 -114 6 -21 23 -24 36 -27
120 -2 52 -1 101 2 109 3 9 18 15 36 15 l30 0 0 -91z"/>
<path d="M387 2957 l-26 -77 50 0 c56 0 55 -3 19 105 l-17 49 -26 -77z"/>
<path d="M1397 2952 c-29 -32 -21 -42 33 -42 54 0 65 14 34 44 -21 21 -47 20
-67 -2z"/>
<path d="M2941 2951 c-65 -65 -7 -202 67 -162 41 22 52 41 52 92 0 45 -3 51
-32 69 -41 25 -63 25 -87 1z"/>
<path d="M2034 2860 c-41 -16 -40 -66 1 -76 13 -3 37 2 54 10 24 13 31 23 31
46 0 27 -3 30 -32 29 -18 0 -42 -4 -54 -9z"/>
<path d="M3234 2860 c-41 -16 -40 -66 1 -76 13 -3 37 2 54 10 24 13 31 23 31
46 0 27 -3 30 -32 29 -18 0 -42 -4 -54 -9z"/>
<path d="M2156 2488 c-135 -80 -78 -291 79 -291 116 0 190 122 139 229 -37 77
-142 107 -218 62z"/>
<path d="M1995 2076 c-86 -27 -143 -65 -189 -125 -55 -71 -96 -146 -96 -176 0
-23 52 -113 172 -295 41 -63 78 -128 82 -145 6 -28 56 -1076 56 -1171 l0 -44
55 0 c30 0 55 4 55 9 0 36 51 816 56 851 7 56 28 90 55 90 42 0 54 -60 105
-518 l48 -432 43 0 43 0 0 583 c1 452 4 596 14 645 14 63 15 64 140 184 89 84
126 126 126 142 0 60 -100 284 -147 328 -35 32 -142 77 -205 85 l-46 6 -6 -54
c-3 -30 -11 -151 -16 -269 -11 -215 -24 -363 -35 -381 -4 -5 -33 -9 -65 -9
-48 0 -61 4 -70 19 -16 32 -29 144 -40 371 -6 118 -13 239 -16 268 l-5 52 -37
-1 c-20 0 -55 -6 -77 -13z m-84 -358 c10 -67 16 -124 14 -126 -6 -7 -55 154
-55 183 0 37 11 78 18 70 3 -3 13 -60 23 -127z m690 -21 c7 -26 5 -37 -17 -69
-28 -40 -49 -51 -40 -20 3 9 8 44 12 77 3 33 9 64 12 69 6 11 21 -15 33 -57z"/>
<path d="M2227 2074 c-3 -4 -4 -27 -1 -53 3 -25 -6 -154 -20 -286 l-24 -240
26 -27 27 -28 27 23 27 22 -25 250 c-14 138 -23 269 -20 292 5 39 -3 61 -17
47z"/>
</g>
</svg>
